{"title":"Star Wars VII - O Despertar da Forca (2015) PT-BR Dual Audio","uid":13813081,"size":824627764,"categoryP":"video","categoryS":"movies","magnet":"?xt=urn:btih:8165f708ebe14d788c62ee3448196a7d444fc535&amp;dn=Star+Wars+VII+-+O+Despertar+da+Forca+%282015%29+PT-BR+Dual+Audio&amp;tr=udp%3A%2F%2Ftracker.leechers-paradise.org%3A6969&amp;tr=udp%3A%2F%2Fzer0day.ch%3A1337&amp;tr=udp%3A%2F%2Fopen.demonii.com%3A1337&amp;tr=udp%3A%2F%2Ftracker.coppersurfer.tk%3A6969&amp;tr=udp%3A%2F%2Fexodus.desync.com%3A6969","seeders":1,"leechers":3,"uploader":"Tex_Killer","files":3,"time":1457630883,"description":"====================\r\nPORTUGUES BRASILEIRO\r\n====================\r\n\r\nArquivo criado a partir da versao em ingles Star Wars The Force Awakens 2015 HD-TS READNFO x264-CPG, corrigindo a introducao e sincronizando o audio de uma outra versao dublada que tem cortes.\r\n\r\nA primeira faixa de audio eh dublada em português brasileiro, e a segunda tem o audio original em ingles.\r\n\r\nAlgumas partes ausentes no audio dublado (aproximadamente 20 minutos) apresentam o audio original em ingles. Uma legenda para apenas essas partes foi incluida no arquivo Star Wars VII - O Despertar da Forca (2015).pt-br.dub.srt.\r\n\r\nUma legenda com todas as falas do filme tambem foi incluida no arquivo Star Wars VII - O Despertar da Forca (2015).pt-br.leg.srt.\r\n\r\n=======\r\nENGLISH\r\n=======\r\n\r\nMade using Star Wars The Force Awakens 2015 HD-TS READNFO x264-CPG as base.\r\n\r\nThe intro was corrected and a brazillian portuguese audio was inserted as audio track #1. The original english audio is available as audio track #2.\r\n\r\nBoth subtitle files are in brazillian portuguese.\r\n\r\n==========\r\nMEDIA INFO\r\n==========\r\n\r\nGeneral\r\nFile name                  : Star Wars VII - O Despertar da Força (2015).mp4\r\nFormat                         : MPEG-4\r\nFormat profile                 : Base Media\r\nCodec ID                       : isom (isom/iso2/avc1/mp41)\r\nFile size                      : 786 MiB\r\nDuration                       : 2h 7mn\r\nOverall bit rate               : 865 Kbps\r\nEncoded date                   : UTC 2016-03-09 16:03:45\r\nTagged date                    : UTC 2016-03-09 16:03:45\r\nWriting application            : Lavf57.26.100\r\n\r\nVideo\r\nID                             : 1\r\nFormat                         : AVC\r\nFormat/Info                    : Advanced Video Codec\r\nFormat profile                 :   \r\nFormat settings, CABAC         : Yes\r\nFormat settings, ReFrames      : 2 frames\r\nCodec ID                       : avc1\r\nCodec ID/Info                  : Advanced Video Coding\r\nDuration                       : 2h 7mn\r\nBit rate                       : 600 Kbps\r\nWidth                          : 720 pixels\r\nHeight                         : 304 pixels\r\nDisplay aspect ratio           : 2.35:1\r\nFrame rate mode                : Constant\r\nFrame rate                     : 30.000 fps\r\nColor space                    : YUV\r\nChroma subsampling             : 4:2:0\r\nBit depth                      : 8 bits\r\nScan type                      : Progressive\r\nBits/(Pixel*Frame)             : 0.091\r\nStream size                    : 545 MiB (69%)\r\nWriting library                : x264 core 148 r2665\r\nEncoding settings              : cabac=1 / ref=2 / deblock=1:0:0 / analyse=0x1:0x131 / me=hex / subme=7 / psy=1 / psy_rd=1.00:0.00 / mixed_ref=0 / me_range=16 / chroma_me=1 / trellis=1 / 8x8dct=0 / cqm=0 / deadzone=21,11 / fast_pskip=1 / chroma_qp_offset=-2 / threads=6 / lookahead_threads=1 / sliced_threads=0 / nr=0 / decimate=1 / interlaced=0 / bluray_compat=0 / constrained_intra=0 / bframes=3 / b_pyramid=0 / b_adapt=1 / b_bias=0 / direct=3 / weightb=1 / open_gop=0 / weightp=2 / keyint=300 / keyint_min=30 / scenecut=40 / intra_refresh=0 / rc_lookahead=40 / rc=2pass / mbtree=1 / bitrate=600 / ratetol=1.0 / qcomp=0.60 / qpmin=10 / qpmax=69 / qpstep=4 / cplxblur=20.0 / qblur=0.5 / vbv_maxrate=6500 / vbv_bufsize=24000 / nal_hrd=none / filler=0 / ip_ratio=1.40 / aq=3:1.00\r\nEncoded date                   : UTC 2016-03-09 16:03:45\r\nTagged date                    : UTC 2016-03-09 16:03:45\r\n\r\nAudio #1\r\nID                             : 2\r\nFormat                         : AAC\r\nFormat/Info                    : Advanced Audio Codec\r\nFormat profile                 : LC\r\nCodec ID                       : 40\r\nDuration                       : 2h 7mn\r\nDuration_LastFrame             : -5ms\r\nBit rate mode                  : Constant\r\nBit rate                       : 128 Kbps\r\nChannel(s)                     : 2 channels\r\nChannel positions              : Front: L R\r\nSampling rate                  : 48.0 KHz\r\nFrame rate                     : 46.875 fps (1024 spf)\r\nCompression mode               : Lossy\r\nStream size                    : 116 MiB (15%)\r\nLanguage                       : Portuguese\r\nDefault                        : Yes\r\nAlternate group                : 1\r\nEncoded date                   : UTC 2016-03-09 16:03:45\r\nTagged date                    : UTC 2016-03-09 16:03:45\r\n\r\nAudio #2\r\nID                             : 3\r\nFormat                         : AAC\r\nFormat/Info                    : Advanced Audio Codec\r\nFormat profile                 : LC\r\nCodec ID                       : 40\r\nDuration                       : 2h 7mn\r\nDuration_LastFrame             : -8ms\r\nBit rate mode                  : Constant\r\nBit rate                       : 128 Kbps\r\nChannel(s)                     : 2 channels\r\nChannel positions              : Front: L R\r\nSampling rate                  : 48.0 KHz\r\nFrame rate                     : 46.875 fps (1024 spf)\r\nCompression mode               : Lossy\r\nStream size                    : 116 MiB (15%)\r\nLanguage                       : English\r\nDefault                        : No\r\nAlternate group                : 1\r\nEncoded date                   : UTC 2016-03-09 16:03:45\r\nTagged date                    : UTC 2016-03-09 16:03:45","torrent":{"xt":"urn:btih:8165f708ebe14d788c62ee3448196a7d444fc535","amp;dn":"Star+Wars+VII+-+O+Despertar+da+Forca+%282015%29+PT-BR+Dual+Audio","amp;tr":["udp%3A%2F%2Ftracker.leechers-paradise.org%3A6969","udp%3A%2F%2Fzer0day.ch%3A1337","udp%3A%2F%2Fopen.demonii.com%3A1337","udp%3A%2F%2Ftracker.coppersurfer.tk%3A6969","udp%3A%2F%2Fexodus.desync.com%3A6969"],"infoHash":"8165f708ebe14d788c62ee3448196a7d444fc535","infoHashBuffer":{"type":"Buffer","data":[129,101,247,8,235,225,77,120,140,98,238,52,72,25,106,125,68,79,197,53]},"announce":[],"urlList":[]}}